HIERARCHY
ROOT Hips
{
    OFFSET 0.000000 0.000000 0.000000
    CHANNELS 6 Xposition Yposition Zposition Zrotation Xrotation Yrotation
    JOINT Spine
    {
        OFFSET -0.000000 14.517291 0.000000
        CHANNELS 3 Zrotation Xrotation Yrotation
        JOINT Spine1
        {
            OFFSET -0.000000 37.558300 0.000000
            CHANNELS 3 Zrotation Xrotation Yrotation
            JOINT Neck
            {
                OFFSET -0.000000 37.404057 3.400369
                CHANNELS 3 Zrotation Xrotation Yrotation
                JOINT Head
                {
                    OFFSET -0.000000 24.785618 -3.540803
                    CHANNELS 3 Zrotation Xrotation Yrotation
                    End Site
                    {
                        OFFSET -0.000000 35.408028 0.000000
                    }
                }
            }
            JOINT LeftShoulder
            {
                OFFSET 6.992933 33.973492 -0.192664
                CHANNELS 3 Zrotation Xrotation Yrotation
                JOINT LeftArm
                {
                    OFFSET 21.527611 0.000000 0.000000
                    CHANNELS 3 Zrotation Xrotation Yrotation
                    JOINT LeftForeArm
                    {
                        OFFSET 56.353916 0.000000 0.000000
                        CHANNELS 3 Zrotation Xrotation Yrotation
                        JOINT LeftHand
                        {
                            OFFSET 47.774071 0.000000 0.000000
                            CHANNELS 3 Zrotation Xrotation Yrotation
                            End Site
                            {
                                OFFSET 26.556021 0.000000 0.000000
                            }
                        }
                    }
                }
            }
            JOINT RightShoulder
            {
                OFFSET -7.065357 33.973492 -0.192664
                CHANNELS 3 Zrotation Xrotation Yrotation
                JOINT RightArm
                {
                    OFFSET -21.527611 0.000000 0.000000
                    CHANNELS 3 Zrotation Xrotation Yrotation
                    JOINT RightForeArm
                    {
                        OFFSET -56.353916 0.000000 0.000000
                        CHANNELS 3 Zrotation Xrotation Yrotation
                        JOINT RightHand
                        {
                            OFFSET -47.774071 0.000000 0.000000
                            CHANNELS 3 Zrotation Xrotation Yrotation
                            End Site
                            {
                                OFFSET -26.556021 0.000000 0.000000
                            }
                        }
                    }
                }
            }
        }
    }
    JOINT LeftUpLeg
    {
        OFFSET 17.704014 0.000000 0.000000
        CHANNELS 3 Zrotation Xrotation Yrotation
        JOINT LeftLeg
        {
            OFFSET -0.000000 -81.181816 0.000000
            CHANNELS 3 Zrotation Xrotation Yrotation
            JOINT LeftFoot
            {
                OFFSET -0.000000 -62.821102 0.000000
                CHANNELS 3 Zrotation Xrotation Yrotation
                JOINT LeftToeBase
                {
                    OFFSET -0.000000 -11.507608 26.556021
                    CHANNELS 3 Zrotation Xrotation Yrotation
                    End Site
                    {
                        OFFSET -0.000000 0.000000 7.081605
                    }
                }
            }
        }
    }
    JOINT RightUpLeg
    {
        OFFSET -17.704014 0.000000 0.000000
        CHANNELS 3 Zrotation Xrotation Yrotation
        JOINT RightLeg
        {
            OFFSET -0.000000 -81.181816 0.000000
            CHANNELS 3 Zrotation Xrotation Yrotation
            JOINT RightFoot
            {
                OFFSET -0.000000 -62.821102 0.000000
                CHANNELS 3 Zrotation Xrotation Yrotation
                JOINT RightToeBase
                {
                    OFFSET -0.000000 -11.507608 26.556021
                    CHANNELS 3 Zrotation Xrotation Yrotation
                    End Site
                    {
                        OFFSET -0.000000 0.000000 7.081605
                    }
                }
            }
        }
    }
}
MOTION
Frames:    12
Frame Time:    0.008333
-9.941763    151.373962    -12.929943    0.275192    0.349394    23.479208    -2.190158    -0.146064    7.212807    -2.475498    3.071214    2.472914    -6.655970    -7.049352    -14.637264    17.891893    7.539885    -12.500454    5.542076    1.513316    -11.545399    -40.364029    37.909245    -34.900036    -13.817546    -15.326593    -56.398537    -5.236202    -22.109177    -6.306268    -13.067029    0.453609    6.919926    22.826010    -20.906136    55.808369    -7.693625    -21.018122    14.687799    11.560657    -15.988269    40.771297    0.952127    -34.009132    -27.452459    -10.427849    22.262049    -22.175827    -10.719696    3.625913    28.937281    0.000000    0.000000    0.000000    3.860082    12.015108    -14.042525    3.196856    24.062916    -1.003522    -3.669134    -31.607470    -7.249959    0.000000    0.000000    0.000000    
-9.961079    151.350861    -12.944074    0.216024    0.370742    23.483978    -2.169092    -0.215080    7.217558    -2.456437    3.078377    2.474545    -6.639862    -7.054853    -14.633219    17.895042    7.552692    -12.501111    5.571740    1.467663    -11.575682    -40.002934    37.725552    -35.910213    -13.401400    -15.886243    -57.267967    -5.539073    -22.533951    -6.523079    -13.053041    0.459608    6.942060    22.839931    -20.905910    55.804283    -7.687371    -21.001127    14.679156    11.561614    -15.968984    40.796352    1.008313    -34.074654    -27.427809    -10.440679    22.285954    -22.218039    -10.703980    3.591861    28.948381    0.000000    0.000000    0.000000    3.909572    11.947538    -14.040475    3.190451    24.103582    -0.985272    -3.668449    -31.638323    -7.277896    0.000000    0.000000    0.000000    
-9.976661    151.357971    -12.945718    0.233068    0.342394    23.492214    -2.215566    -0.194060    7.221890    -2.422991    3.075809    2.474907    -6.623354    -7.080188    -14.626613    17.885157    7.573151    -12.500197    5.590117    1.400696    -11.624855    -39.654007    37.447617    -36.864384    -13.138978    -16.289333    -58.224762    -5.119380    -22.955719    -6.179489    -13.048365    0.480807    6.938531    22.957525    -20.997763    55.870308    -7.613441    -20.920153    14.684337    11.526900    -15.907667    40.790863    1.008815    -34.037754    -27.411299    -10.433301    22.271454    -22.239637    -10.716825    3.615296    28.948915    0.000000    0.000000    0.000000    3.914225    11.962818    -14.049455    3.179169    24.132141    -1.000719    -3.672294    -31.623955    -7.268156    0.000000    0.000000    0.000000    
-9.982890    151.357208    -12.957609    0.226077    0.329493    23.505928    -2.224543    -0.200789    7.217210    -2.415006    3.085105    2.473409    -6.586042    -7.103861    -14.625850    17.855396    7.582414    -12.509702    5.622145    1.329515    -11.682394    -39.312458    37.174015    -37.782509    -12.919198    -16.730181    -59.201675    -4.787398    -23.418863    -6.075048    -13.030425    0.472698    6.942379    22.966898    -20.970396    55.877411    -7.609054    -20.942329    14.688514    11.510540    -15.934847    40.807465    1.010986    -34.032906    -27.423626    -10.425049    22.267654    -22.274313    -10.704152    3.625766    28.960337    0.000000    0.000000    0.000000    3.925673    11.951477    -14.084528    3.170969    24.168921    -1.002245    -3.656744    -31.629105    -7.235304    0.000000    0.000000    0.000000    
-9.985487    151.354691    -12.977516    0.223369    0.325799    23.524246    -2.235212    -0.208170    7.205716    -2.407285    3.093271    2.469573    -6.558601    -7.123774    -14.615563    17.823933    7.577357    -12.505167    5.671897    1.345251    -11.656898    -38.848106    36.903534    -38.899288    -12.613205    -17.228128    -60.076408    -4.733718    -23.854698    -6.075687    -13.029013    0.493355    6.928458    22.979172    -20.958632    55.919304    -7.609255    -20.957218    14.677641    11.553223    -15.931031    40.846813    0.998084    -34.037491    -27.449175    -10.421819    22.260208    -22.272408    -10.732913    3.630010    28.982744    0.000000    0.000000    0.000000    3.928427    11.927409    -14.132581    3.156286    24.214750    -0.975508    -3.631423    -31.638752    -7.229317    0.000000    0.000000    0.000000    
-9.994328    151.351456    -12.992522    0.216459    0.317601    23.532272    -2.245613    -0.212602    7.195636    -2.403599    3.102251    2.466338    -6.542430    -7.136264    -14.610810    17.829094    7.563768    -12.500381    5.745352    1.290490    -11.761344    -38.622486    36.478771    -39.702198    -12.466395    -17.565466    -61.063133    -4.683976    -24.236931    -5.989985    -13.019658    0.502024    6.924155    22.993670    -20.944815    55.951374    -7.602929    -20.964384    14.681052    11.564084    -15.936563    40.833176    1.002825    -34.038948    -27.460646    -10.419245    22.255629    -22.267447    -10.745753    3.637754    28.982239    0.000000    0.000000    0.000000    3.939711    11.906137    -14.151047    3.142655    24.257566    -0.976042    -3.626409    -31.648760    -7.213500    0.000000    0.000000    0.000000    
-10.001805    151.348694    -13.005513    0.211615    0.304698    23.529869    -2.252079    -0.206483    7.192703    -2.407346    3.103406    2.465478    -6.522138    -7.135139    -14.608455    17.832378    7.527547    -12.496354    5.793932    1.208758    -11.834470    -38.322105    36.179916    -40.552376    -12.224234    -17.985489    -62.000645    -4.589644    -24.637659    -5.923492    -13.008574    0.515660    6.918161    22.998381    -20.948202    55.992218    -7.728309    -20.870920    14.577078    8.685866    -16.966326    39.651501    1.019522    -34.026386    -27.474775    -10.423344    22.232111    -22.231064    -10.756618    3.642322    28.963997    0.000000    0.000000    0.000000    3.952287    11.888449    -14.174388    3.122757    24.303732    -0.962410    -3.610367    -31.659170    -7.212235    0.000000    0.000000    0.000000    
-10.002406    151.343292    -13.021660    0.215367    0.293893    23.528437    -2.263650    -0.199274    7.178071    -2.412074    3.111892    2.460841    -6.500504    -7.147584    -14.597866    17.826551    7.497525    -12.484836    5.844652    1.118771    -11.898758    -38.026432    35.823143    -41.359165    -12.011737    -18.290701    -62.964314    -4.532837    -24.941397    -5.902566    -13.005983    0.513932    6.929524    23.008554    -20.918266    56.005856    -7.600578    -20.974483    14.670168    11.605003    -15.932854    40.835861    1.015027    -34.018559    -27.478512    -10.412802    22.232292    -22.224977    -10.766051    3.647479    28.953941    0.000000    0.000000    0.000000    3.947993    11.873224    -14.186147    3.115997    24.352211    -0.960141    -3.625092    -31.669056    -7.205105    0.000000    0.000000    0.000000    
-10.002598    151.333145    -13.034972    0.219114    0.275419    23.520004    -2.271009    -0.184824    7.169748    -2.412874    3.120816    2.458191    -6.502687    -7.146039    -14.592319    17.843706    7.447223    -12.469384    5.892811    1.033061    -11.963874    -37.702263    35.568661    -42.186558    -11.609747    -18.721804    -63.883495    -4.659920    -25.236843    -5.942966    -13.010456    0.539665    6.925289    22.986368    -20.888914    56.042656    -7.633625    -20.992002    14.660967    11.597085    -15.951880    40.821079    1.020234    -34.005283    -27.504101    -10.426146    22.229219    -22.193016    -10.759075    3.640762    28.955900    0.000000    0.000000    0.000000    3.945355    11.871672    -14.175803    3.118693    24.389774    -0.948941    -3.626153    -31.692389    -7.232870    0.000000    0.000000    0.000000    
-10.004793    151.322266    -13.051952    0.224258    0.269979    23.501287    -2.290224    -0.183387    7.164334    -2.408841    3.134147    2.456591    -6.498227    -7.124643    -14.585714    17.852921    7.369692    -12.451665    5.948829    0.971318    -11.998423    -37.380589    35.248611    -43.045315    -11.131172    -19.064384    -64.733910    -4.755783    -25.393400    -5.884306    -13.015936    0.519937    6.951616    22.992022    -20.882675    56.043781    -7.618412    -20.987108    14.668678    11.607128    -15.942878    40.836666    1.026632    -34.004631    -27.511259    -10.433408    22.229420    -22.168682    -10.769392    3.635330    28.957127    0.000000    0.000000    0.000000    3.933194    11.857618    -14.171852    3.109339    24.429995    -0.951375    -3.625597    -31.725075    -7.202028    0.000000    0.000000    0.000000    
-10.002806    151.310165    -13.064260    0.236590    0.254330    23.480524    -2.308179    -0.170789    7.156173    -2.413171    3.150991    2.454261    -6.484751    -7.133730    -14.579795    17.851952    7.332085    -12.441944    6.001819    0.903586    -12.034054    -36.977215    35.026039    -43.891308    -10.682027    -19.533241    -65.668800    -4.837700    -25.684748    -5.999801    -13.006948    0.509198    6.992816    22.999275    -20.916067    56.045750    -7.582775    -20.948599    14.681914    11.579372    -15.918968    40.817150    1.032923    -33.987629    -27.527748    -10.444309    22.224234    -22.139790    -10.780218    3.614246    28.960054    0.000000    0.000000    0.000000    3.920137    11.867607    -14.171082    3.112586    24.447313    -0.971790    -3.632859    -31.768597    -7.180494    0.000000    0.000000    0.000000    
-9.997416    151.298889    -13.076017    0.253592    0.240440    23.458609    -2.339642    -0.165199    7.151089    -2.396876    3.178566    2.452662    -6.497900    -7.125913    -14.574450    17.880695    7.269384    -12.421801    6.051215    0.826202    -12.105950    -36.691505    34.761135    -44.639416    -10.158918    -19.982206    -66.610115    -4.914646    -25.913645    -5.924916    -13.006096    0.481847    7.007267    22.843031    -20.744738    55.999573    -7.712127    -21.076447    14.658851    11.644343    -16.009340    40.846062    1.026883    -33.972004    -27.571430    -10.460571    22.227764    -22.100023    -10.772483    3.597859    28.977600    0.000000    0.000000    0.000000    3.896771    11.884226    -14.154881    3.116606    24.457886    -0.956637    -3.660428    -31.808306    -7.181751    0.000000    0.000000    0.000000    
